<?xml version="1.0" standalone="no"?>
<!DOCTYPE svg PUBLIC "-//W3C//DTD SVG 20010904//EN"
 "http://www.w3.org/TR/2001/REC-SVG-20010904/DTD/svg10.dtd">
<svg version="1.0" xmlns="http://www.w3.org/2000/svg"
 width="1245.000000pt" height="1245.000000pt" viewBox="0 0 1245.000000 1245.000000"
 preserveAspectRatio="xMidYMid meet">
<metadata>
Created by potrace 1.14, written by Peter Selinger 2001-2017
</metadata>
<g transform="translate(0.000000,1245.000000) scale(0.100000,-0.100000)"
fill="#000000" stroke="none">
<path d="M6123 12372 c-49 -42 -110 -94 -134 -115 -24 -21 -87 -74 -139 -119
l-95 -81 0 -4318 c0 -2376 -2 -4319 -5 -4319 -3 0 -49 114 -104 253 -179 456
-267 681 -288 737 -11 30 -27 69 -34 85 -15 36 -168 425 -199 510 -33 88 -174
447 -184 470 -5 11 -19 45 -30 75 -24 68 -208 537 -220 565 -5 11 -46 115 -91
230 -211 547 -302 782 -311 800 -5 11 -43 108 -84 215 -42 107 -80 204 -84
215 -5 11 -28 70 -51 130 -23 61 -46 119 -51 130 -16 37 -340 869 -356 914 -9
27 -11 46 -5 50 5 3 38 31 73 62 35 32 276 240 534 465 259 224 499 433 535
464 36 32 155 135 265 231 110 95 212 184 227 197 l27 24 -1 719 c-1 506 -5
716 -12 711 -11 -6 -208 -175 -531 -456 -88 -76 -182 -157 -208 -180 -27 -22
-54 -46 -60 -51 -7 -6 -50 -43 -97 -84 -74 -63 -189 -164 -224 -196 -6 -5 -41
-35 -76 -65 -36 -30 -76 -65 -90 -77 -14 -12 -36 -31 -50 -43 -77 -66 -135
-117 -149 -130 -9 -8 -61 -53 -116 -100 -55 -47 -102 -87 -105 -90 -6 -6 -144
-126 -180 -156 -41 -35 -131 -113 -200 -174 -36 -31 -81 -70 -100 -86 -19 -16
-37 -31 -40 -34 -3 -3 -39 -34 -80 -70 -41 -36 -77 -67 -80 -70 -3 -3 -36 -32
-75 -65 -38 -33 -72 -62 -75 -65 -3 -3 -21 -18 -40 -34 -19 -15 -53 -45 -75
-65 -38 -34 -143 -125 -209 -181 -17 -14 -48 -41 -69 -61 l-39 -35 292 -685
c161 -376 306 -715 322 -754 17 -38 36 -85 44 -102 8 -18 20 -48 28 -65 8 -18
33 -78 56 -133 23 -55 50 -118 60 -140 10 -22 104 -242 210 -490 105 -247 198
-463 205 -480 8 -16 66 -154 130 -305 65 -151 128 -299 141 -328 13 -29 24
-55 24 -58 0 -3 12 -31 26 -62 14 -31 35 -79 46 -106 10 -27 27 -68 37 -90 10
-23 33 -75 51 -116 18 -41 38 -88 45 -105 7 -16 34 -77 58 -135 25 -58 196
-460 382 -895 185 -434 342 -803 350 -820 7 -16 82 -190 165 -385 385 -901
913 -2138 925 -2165 8 -16 75 -174 150 -350 75 -176 138 -322 140 -324 4 -4 3
-7 140 324 57 138 150 363 207 501 l104 251 3 2844 c2 1564 3 3707 4 4762 1
1054 4 1917 7 1917 3 0 15 -8 26 -17 10 -10 82 -72 159 -138 77 -66 156 -134
175 -151 33 -30 195 -171 250 -218 68 -58 166 -142 170 -146 3 -3 39 -34 80
-70 41 -36 77 -67 80 -70 3 -3 84 -73 180 -155 96 -83 177 -152 180 -155 3 -3
57 -50 120 -105 63 -55 128 -111 144 -125 16 -14 55 -47 85 -74 79 -69 102
-89 226 -195 60 -52 123 -107 140 -122 16 -14 43 -38 59 -51 l29 -24 -58 -150
c-31 -82 -63 -162 -70 -179 -7 -16 -68 -172 -135 -345 -67 -173 -132 -342
-145 -375 -13 -33 -85 -217 -160 -410 -74 -192 -139 -359 -144 -370 -5 -11
-47 -119 -94 -240 -163 -425 -429 -1110 -438 -1130 -11 -26 -65 -162 -94 -240
-39 -105 -255 -659 -264 -680 -5 -11 -25 -62 -45 -113 l-36 -92 2 -1175 3
-1175 74 172 c80 187 104 241 132 304 11 22 19 43 19 47 0 4 13 36 30 71 16
36 41 94 55 128 15 35 32 77 40 93 7 17 48 111 90 210 42 99 83 195 91 213 8
17 20 47 28 65 8 17 23 52 34 77 11 25 39 90 62 145 22 55 54 128 71 163 16
35 29 65 29 68 0 3 7 21 15 40 33 74 97 223 125 289 4 11 17 40 28 65 11 25
140 326 287 670 147 344 273 639 281 655 7 17 63 147 124 290 61 143 117 274
125 290 7 17 25 58 39 92 14 35 37 86 50 115 12 29 53 125 91 213 37 88 73
174 81 190 8 17 235 544 504 1173 l490 1143 -32 27 c-53 44 -540 463 -583 501
-22 20 -65 56 -95 81 -30 25 -75 63 -100 86 -25 22 -252 218 -505 434 -253
217 -471 404 -485 416 -14 12 -126 109 -250 215 -124 105 -250 213 -280 240
-30 26 -93 80 -140 120 -47 40 -94 81 -105 91 -11 10 -31 27 -45 39 -71 59
-124 105 -134 114 -6 6 -72 62 -146 125 -74 63 -139 120 -145 126 -5 6 -37 33
-70 60 -33 27 -62 52 -65 55 -3 3 -70 61 -150 129 -80 68 -172 147 -205 175
-33 29 -128 111 -211 183 l-151 130 -90 -76z"/>
</g>
</svg>
